<?xml version="1.0" encoding="UTF-8"?>
<!DOCTYPE svg PUBLIC "-//W3C//DTD SVG 1.1//EN" "http://www.w3.org/Graphics/SVG/1.1/DTD/svg11.dtd">
<!-- Creator: CorelDRAW X7 -->
<svg xmlns="http://www.w3.org/2000/svg" xml:space="preserve" width="15.858in" height="7.115in" version="1.1" style="shape-rendering:geometricPrecision; text-rendering:geometricPrecision; image-rendering:optimizeQuality; fill-rule:evenodd; clip-rule:evenodd"
viewBox="0 0 15858 7115"
 xmlns:xlink="http://www.w3.org/1999/xlink">
 <defs>
  <style type="text/css">
   <![CDATA[
    .fil0 {fill:#00A4EB}
    .fil1 {fill:#119BE1}
    .fil2 {fill:#378FD4}
    .fil3 {fill:#5084CB}
    .fil4 {fill:#6779C2}
    .fil5 {fill:#8465B6}
    .fil6 {fill:#A844A4}
    .fil7 {fill:#BA309B}
    .fil8 {fill:#D1128F}
   ]]>
  </style>
 </defs>
 <g id="Layer_x0020_1">
  <metadata id="CorelCorpID_0Corel-Layer"/>
  <g id="_1677678896640">
   <polygon class="fil0" points="15859,1 15859,4788 1,4788 1,1 "/>
   <path class="fil1" d="M15859 530l0 4258 -15858 0 0 -4087c0,0 352,-223 1133,-241 660,-16 1187,284 2081,43 781,-212 1225,-394 1727,-502l2018 0c705,136 1490,370 2561,467 1404,126 1544,-253 2502,-373 786,-99 1254,387 2278,477 989,88 775,68 1558,-42z"/>
   <path class="fil2" d="M1 1456c0,0 345,71 1519,-17 1029,-76 1235,-397 2289,-611 921,-186 1749,280 3024,447 641,84 1273,-129 2009,-260 1247,-221 1479,535 3296,80 670,-167 1645,-282 2513,18 1020,353 1208,271 1208,271l0 3404 -15858 0 0 -3332z"/>
   <path class="fil3" d="M1 2308c0,0 1156,-522 2399,-313 1678,284 2773,-805 5429,57 1343,436 1759,290 2502,4 1701,-656 3099,-567 4255,-155 687,244 1273,139 1273,139l0 2748 -15858 0 0 -2480z"/>
   <path class="fil4" d="M1 2984c0,0 1040,152 1972,58 1394,-139 3062,-1233 5530,-174 0,0 1246,559 3588,-258 1978,-691 3135,-77 3566,101 721,296 1202,331 1202,331l0 1746 -15858 0 0 -1804z"/>
   <path class="fil5" d="M1 4021c0,0 2702,-899 4612,-374 1911,525 2347,415 3317,319 971,-96 3041,-713 3744,-714 1638,-1 2299,843 4185,524l0 1012 -15858 0 0 -767z"/>
   <path class="fil6" d="M1 4745c0,0 345,71 1519,-16 1029,-77 1235,-398 2289,-611 921,-186 1749,280 3024,447 641,84 1273,-130 2009,-261 1247,-221 1479,535 3296,81 670,-168 1645,-282 2513,17 1020,353 1208,271 1208,271l0 2442 -15858 0 0 -2370z"/>
   <path class="fil7" d="M1 5710c0,0 1156,-522 2399,-313 1678,283 2773,-805 5429,57 1343,436 1759,290 2502,4 1701,-656 3099,-567 4255,-156 687,245 1273,140 1273,140l0 1673 -15858 0 0 -1405z"/>
   <path class="fil8" d="M1 6650c0,0 1040,151 1972,58 1394,-140 3062,-1234 5530,-175 0,0 1246,559 3588,-258 1978,-690 3135,-76 3566,101 721,297 1202,332 1202,332l0 407 -15858 0 0 -465z"/>
  </g>
 </g>
</svg>
