<!DOCTYPE svg PUBLIC "-//W3C//DTD SVG 20010904//EN" "http://www.w3.org/TR/2001/REC-SVG-20010904/DTD/svg10.dtd">
<svg version="1.0" xmlns="http://www.w3.org/2000/svg" width="1150px" height="862px" viewBox="0 0 11500 8620" preserveAspectRatio="xMidYMid meet">
<g id="layer101" fill="#646bc0" fill-rule="evenodd">
<path d="M200 5599 L200 3118 139 3062 C66 2995,23 2916,11 2827 C-13 2650,75 2483,237 2407 C299 2377,313 2375,405 2375 C496 2375,510 2377,572 2407 C654 2445,727 2517,766 2597 C792 2650,795 2664,795 2765 C795 2866,792 2879,765 2935 C747 2971,711 3019,673 3057 L610 3119 610 5394 L610 7670 1940 7670 L3270 7670 3270 7490 L3270 7310 2120 7310 L970 7310 970 4840 L970 2370 1554 2370 L2139 2370 2142 4252 L2145 6135 2495 6137 C2866 6141,2950 6137,2950 6115 C2950 6093,3055 6003,3114 5975 C3190 5939,3302 5931,3385 5954 C3686 6041,3772 6418,3540 6633 C3462 6705,3392 6732,3285 6734 C3200 6735,3103 6712,3076 6684 C3068 6676,3058 6670,3054 6670 C3043 6670,2953 6576,2946 6557 C2941 6541,2903 6540,2341 6540 L1742 6540 1736 6448 C1732 6398,1730 5552,1730 4568 L1730 2780 1555 2780 L1380 2780 1378 4732 C1378 5806,1376 6733,1374 6792 L1370 6900 2525 6900 L3680 6900 3675 7485 L3670 8070 1935 8075 L200 8080 200 5599 M3232 6474 C3155 6451,3115 6335,3158 6264 C3210 6180,3358 6182,3400 6267 C3421 6310,3422 6349,3405 6394 C3381 6457,3299 6495,3232 6474 M342 2890 C321 2879,296 2856,287 2840 C262 2799,264 2719,290 2686 C374 2579,539 2634,539 2768 C540 2826,514 2866,462 2890 C409 2915,389 2915,342 2890 " />
<path d="M4100 7875 L4100 7670 4870 7670 L5640 7670 5640 5785 L5640 3900 7018 3899 C8323 3899,8397 3900,8402 3917 C8404 3927,8406 4866,8405 6005 L8405 8075 8201 8077 L7998 8080 8003 6195 L8008 4309 7024 4310 L6040 4310 6040 6195 L6040 8080 5070 8080 L4100 8080 4100 7875 " />
<path d="M8770 5810 L8770 3540 7021 3540 L5273 3540 5274 5292 C5275 6256,5274 7104,5272 7177 L5268 7310 4956 7310 L4645 7310 4620 7346 C4585 7398,4493 7463,4426 7484 C4384 7497,4346 7501,4282 7498 C4207 7495,4184 7490,4129 7462 C3984 7391,3902 7246,3912 7080 C3920 6936,4006 6807,4135 6744 C4190 6717,4204 6715,4305 6715 C4403 6715,4420 6717,4471 6741 C4524 6766,4575 6808,4627 6873 C4650 6900,4650 6900,4762 6897 L4875 6895 4870 5014 L4866 3133 7798 3134 L10729 3135 10759 3093 C10793 3046,10892 2976,10948 2959 C11014 2939,11111 2936,11172 2952 C11471 3031,11573 3388,11360 3613 C11247 3732,11084 3768,10923 3708 C10878 3691,10848 3670,10791 3613 L10717 3539 9949 3539 L9181 3540 9178 3627 C9176 3675,9175 4691,9175 5885 C9176 7078,9175 8060,9173 8067 C9170 8076,9121 8080,8970 8080 L8770 8080 8770 5810 M4237 7232 C4219 7222,4194 7199,4181 7180 C4148 7130,4154 7052,4195 7009 C4229 6973,4285 6955,4331 6963 C4380 6972,4437 7023,4449 7069 C4460 7109,4458 7124,4431 7178 C4400 7241,4304 7268,4237 7232 M10992 3460 C10876 3376,10934 3196,11076 3196 C11177 3196,11248 3311,11203 3399 C11163 3475,11056 3506,10992 3460 " />
<path d="M9540 5990 L9540 3900 10510 3900 L11480 3900 11477 4102 L11475 4305 10709 4307 L9944 4310 9942 6190 L9940 8070 9740 8075 L9540 8080 9540 5990 " />
<path d="M4100 4455 L4100 2370 7785 2370 L11470 2370 11470 2575 L11470 2780 7990 2780 L4510 2780 4510 4660 L4510 6540 4305 6540 L4100 6540 4100 4455 " />
<path d="M4957 1940 C4823 1924,4598 1838,4524 1775 C4517 1769,4501 1758,4489 1750 C4459 1730,4319 1590,4300 1560 C4291 1548,4280 1532,4275 1525 C4251 1498,4176 1353,4182 1346 C4183 1344,4179 1336,4173 1329 C4125 1268,4091 992,4113 845 C4122 784,4136 715,4139 715 C4140 715,4143 705,4145 693 C4147 682,4154 659,4160 643 C4166 627,4171 613,4170 612 C4169 608,4233 485,4239 480 C4242 477,4251 463,4260 448 C4288 398,4315 366,4386 295 C4470 213,4480 204,4540 165 C4653 91,4759 50,4930 14 C4969 6,5149 6,5210 14 C5345 32,5469 79,5584 153 C5700 227,5764 284,5820 358 C5833 376,5855 403,5867 418 C5879 432,5889 450,5889 456 C5889 463,5893 469,5897 471 C5901 473,5920 506,5938 545 C5956 583,5975 624,5981 635 C5989 652,6003 702,6027 805 C6036 844,6036 1093,6026 1147 C6016 1206,5974 1331,5944 1394 C5771 1761,5360 1988,4957 1940 " />
</g>

</svg>